<svg width="59" height="59" viewBox="0 0 59 59" fill="none" xmlns="http://www.w3.org/2000/svg">
<g clip-path="url(#clip0_489_9280)">
<path d="M31.1787 8.59036L31.8634 8.89649C31.9903 8.61258 31.9289 8.27977 31.7089 8.05991L31.1787 8.59036ZM30.7348 11.4667L31.4765 11.3558L31.4763 11.3542L30.7348 11.4667ZM32.2084 14.4139L31.5851 14.8311L31.5855 14.8317L32.2084 14.4139ZM34.8103 18.2151L35.4962 17.9117L35.4958 17.9107L34.8103 18.2151ZM35.2543 23.2834L35.9662 23.5194L35.9663 23.5191L35.2543 23.2834ZM32.9236 26.4002L32.4877 25.7899L32.4843 25.7923L32.9236 26.4002ZM27.6488 27.4607L27.8256 26.7318L27.8246 26.7316L27.6488 27.4607ZM24.2576 25.3366L24.8387 24.8623L24.8385 24.8621L24.2576 25.3366ZM23.2989 18.212L24.017 18.4282L24.017 18.4282L23.2989 18.212ZM24.9759 14.9935L24.338 14.5991L24.3377 14.5997L24.9759 14.9935ZM28.1267 10.9518L27.6061 10.412L27.6053 10.4127L28.1267 10.9518ZM31.1756 8.58728L31.7058 8.05683C31.46 7.81108 31.0775 7.76649 30.7817 7.94909L31.1756 8.58728ZM8.74146 28.1165C8.32724 28.1165 7.99146 28.4523 7.99146 28.8665C7.99146 29.2807 8.32724 29.6165 8.74146 29.6165V28.1165ZM13.933 28.8665L14.4258 28.3011L14.214 28.1165H13.933V28.8665ZM16.1404 30.0997L16.358 29.3819L16.3576 29.3818L16.1404 30.0997ZM19.8922 30.0473L19.6838 29.3268L19.683 29.327L19.8922 30.0473ZM22.8734 28.7617L22.7472 28.0224L22.7469 28.0224L22.8734 28.7617ZM25.9038 29.07L26.1783 28.372L26.1757 28.371L25.9038 29.07ZM28.4226 30.6114L28.519 29.8676L28.5148 29.8671L28.4226 30.6114ZM31.9155 29.3259L31.6116 28.6402L31.6114 28.6403L31.9155 29.3259ZM33.5586 28.6569L33.4429 27.9158L33.4368 27.9168L33.5586 28.6569ZM36.9498 29.48L36.6337 30.1601L36.6349 30.1607L36.9498 29.48ZM39.1078 30.6607L38.8926 31.3792L38.8939 31.3796L39.1078 30.6607ZM43.8863 28.8634V28.1134H43.6166L43.4087 28.2852L43.8863 28.8634ZM49.4879 29.6134C49.9021 29.6134 50.2379 29.2776 50.2379 28.8634C50.2379 28.4492 49.9021 28.1134 49.4879 28.1134V29.6134ZM8.74146 42.233C8.32724 42.233 7.99146 42.5687 7.99146 42.983C7.99146 43.3972 8.32724 43.733 8.74146 43.733V42.233ZM13.933 42.983L14.4258 42.4175L14.214 42.233H13.933V42.983ZM16.1404 44.2161L16.358 43.4984L16.3576 43.4983L16.1404 44.2161ZM19.8922 44.1637L19.6838 43.4433L19.683 43.4435L19.8922 44.1637ZM22.8734 42.8781L22.7472 42.1388L22.7469 42.1389L22.8734 42.8781ZM25.9038 43.1864L26.1783 42.4885L26.1757 42.4874L25.9038 43.1864ZM28.4226 44.7279L28.519 43.9841L28.5148 43.9836L28.4226 44.7279ZM31.9155 43.4423L31.6116 42.7566L31.6114 42.7567L31.9155 43.4423ZM33.5586 42.7733L33.4429 42.0323L33.4368 42.0333L33.5586 42.7733ZM36.9498 43.5965L36.6337 44.2766L36.6349 44.2771L36.9498 43.5965ZM39.1078 44.7772L38.8926 45.4957L38.8939 45.496L39.1078 44.7772ZM43.8863 42.9799V42.2299H43.6166L43.4087 42.4016L43.8863 42.9799ZM49.4879 43.7299C49.9021 43.7299 50.2379 43.3941 50.2379 42.9799C50.2379 42.5657 49.9021 42.2299 49.4879 42.2299V43.7299ZM49.491 38.338C49.9052 38.338 50.241 38.0022 50.241 37.588C50.241 37.1737 49.9052 36.838 49.491 36.838V38.338ZM44.2994 37.588L43.8067 38.1534L44.0185 38.338H44.2994V37.588ZM42.092 36.3548L41.8744 37.0725L41.8748 37.0726L42.092 36.3548ZM38.3402 36.4072L38.5486 37.1277L38.5494 37.1274L38.3402 36.4072ZM35.359 37.6928L35.4852 38.4321L35.4855 38.432L35.359 37.6928ZM32.3286 37.3845L32.0541 38.0825L32.0567 38.0835L32.3286 37.3845ZM29.8099 35.8431L29.7134 36.5868L29.7176 36.5874L29.8099 35.8431ZM26.317 37.1286L26.6208 37.8143L26.621 37.8142L26.317 37.1286ZM24.6738 37.7976L24.7896 38.5386L24.7957 38.5376L24.6738 37.7976ZM21.2826 36.9745L21.5987 36.2943L21.5975 36.2938L21.2826 36.9745ZM19.1246 35.7937L19.3398 35.0753L19.3386 35.0749L19.1246 35.7937ZM14.3461 37.591V38.341H14.6158L14.8238 38.1693L14.3461 37.591ZM8.74146 36.841C8.32724 36.841 7.99146 37.1768 7.99146 37.591C7.99146 38.0053 8.32724 38.341 8.74146 38.341V36.841ZM30.9136 16.4694C30.5505 16.2701 30.0946 16.4028 29.8953 16.766C29.696 17.1291 29.8288 17.585 30.1919 17.7843L30.9136 16.4694ZM32.273 18.8224L32.9319 18.4642L32.9316 18.4636L32.273 18.8224ZM31.5757 22.705C31.3925 23.0765 31.5451 23.5262 31.9166 23.7094C32.2881 23.8926 32.7378 23.7399 32.921 23.3684L31.5757 22.705ZM56.0873 29.5015C56.0873 44.1845 44.1844 56.0874 29.5014 56.0874V57.5874C45.0128 57.5874 57.5873 45.013 57.5873 29.5015H56.0873ZM29.5014 56.0874C14.8184 56.0874 2.91553 44.1845 2.91553 29.5015H1.41553C1.41553 45.013 13.99 57.5874 29.5014 57.5874V56.0874ZM2.91553 29.5015C2.91553 14.8186 14.8184 2.91565 29.5014 2.91565V1.41565C13.99 1.41565 1.41553 13.9901 1.41553 29.5015H2.91553ZM29.5014 2.91565C44.1844 2.91565 56.0873 14.8186 56.0873 29.5015H57.5873C57.5873 13.9901 45.0128 1.41565 29.5014 1.41565V2.91565ZM30.494 8.28423C30.1781 8.99083 29.7811 10.1803 29.9932 11.5792L31.4763 11.3542C31.3247 10.3547 31.6059 9.47238 31.8634 8.89649L30.494 8.28423ZM29.993 11.5776C30.1511 12.6355 30.6056 13.3679 31.5851 14.8311L32.8316 13.9967C31.8258 12.4942 31.5774 12.0305 31.4765 11.3558L29.993 11.5776ZM31.5855 14.8317C32.6753 16.4563 33.2394 17.2046 33.5791 17.6544C33.9045 18.0853 33.9716 18.1742 34.1249 18.5195L35.4958 17.9107C35.2699 17.4021 35.1165 17.2012 34.7761 16.7504C34.4499 16.3185 33.9026 15.5932 32.8312 13.9961L31.5855 14.8317ZM34.1245 18.5185C34.4167 19.1792 35.216 21.0131 34.5423 23.0476L35.9663 23.5191C36.834 20.8985 35.7959 18.589 35.4962 17.9117L34.1245 18.5185ZM34.5424 23.0474C34.0548 24.5183 33.0278 25.4041 32.4877 25.7899L33.3595 27.0105C34.0279 26.533 35.3378 25.415 35.9662 23.5194L34.5424 23.0474ZM32.4843 25.7923C32.2093 25.991 30.271 27.3249 27.8256 26.7318L27.472 28.1895C30.5943 28.9468 33.0152 27.2594 33.3629 27.008L32.4843 25.7923ZM27.8246 26.7316C27.444 26.6398 25.9561 26.2314 24.8387 24.8623L23.6766 25.8108C25.1056 27.5616 26.9842 28.0719 27.473 28.1898L27.8246 26.7316ZM24.8385 24.8621C23.8529 23.6556 23.5872 22.2289 23.6056 20.9819C23.6241 19.7344 23.9266 18.7287 24.017 18.4282L22.5807 17.9959C22.48 18.3304 22.1274 19.4981 22.1058 20.9597C22.0842 22.4218 22.3934 24.2399 23.6768 25.811L24.8385 24.8621ZM24.017 18.4282C24.279 17.5577 24.681 16.9 25.6142 15.3873L24.3377 14.5997C23.4335 16.0651 22.9106 16.8995 22.5807 17.9959L24.017 18.4282ZM25.6138 15.3879C26.2511 14.3573 27.1301 12.9588 28.648 11.491L27.6053 10.4127C25.9479 12.0154 24.9894 13.5457 24.338 14.5991L25.6138 15.3879ZM28.6473 11.4917C29.3086 10.854 30.2717 10.0267 31.5696 9.22547L30.7817 7.94909C29.3728 8.81882 28.3258 9.71793 27.6061 10.412L28.6473 11.4917ZM30.6454 9.11773L30.6485 9.12082L31.7089 8.05991L31.7058 8.05683L30.6454 9.11773ZM8.74146 29.6165H13.933V28.1165H8.74146V29.6165ZM13.4403 29.4319C13.9206 29.8505 14.7492 30.4622 15.9231 30.8175L16.3576 29.3818C15.4537 29.1082 14.8087 28.6348 14.4258 28.3011L13.4403 29.4319ZM15.9227 30.8174C17.8484 31.4014 19.5188 30.9368 20.1015 30.7675L19.683 29.327C19.162 29.4784 17.8482 29.8338 16.358 29.3819L15.9227 30.8174ZM20.1007 30.7677C20.9992 30.5078 21.4656 30.1997 21.8509 29.9569C22.1797 29.7496 22.4326 29.598 22.9998 29.501L22.7469 28.0224C21.9084 28.1659 21.4645 28.4273 21.0511 28.6879C20.6942 28.9129 20.373 29.1274 19.6838 29.3268L20.1007 30.7677ZM22.9996 29.501C24.3302 29.2739 25.4467 29.6969 25.632 29.769L26.1757 28.371C25.917 28.2704 24.4871 27.7254 22.7472 28.0224L22.9996 29.501ZM25.6294 29.768C26.2652 30.018 26.5428 30.29 26.8199 30.5579C26.9622 30.6955 27.1541 30.8843 27.398 31.0364C27.6607 31.2003 27.9602 31.3099 28.3303 31.3557L28.5148 29.8671C28.35 29.8467 28.2603 29.8064 28.1918 29.7637C28.1045 29.7093 28.0232 29.6349 27.8626 29.4796C27.5339 29.1617 27.087 28.7293 26.1783 28.372L25.6294 29.768ZM28.3261 31.3552C28.4572 31.3722 28.611 31.3824 28.8179 31.3501C29.0023 31.3213 29.2078 31.262 29.4598 31.1727C29.9619 30.9949 30.7786 30.6505 32.2195 30.0115L31.6114 28.6403C30.1606 29.2837 29.3973 29.6036 28.9591 29.7588C28.741 29.836 28.6363 29.8603 28.5864 29.8681C28.559 29.8724 28.5544 29.8722 28.519 29.8676L28.3261 31.3552ZM32.2193 30.0115C33.6252 29.3885 33.5424 29.4197 33.6805 29.3969L33.4368 27.9168C33.0508 27.9804 32.8632 28.0855 31.6116 28.6402L32.2193 30.0115ZM33.6744 29.3979C34.5992 29.2534 35.4215 29.5968 36.6337 30.1601L37.2659 28.7999C36.1166 28.2657 34.8857 27.6904 33.4429 27.9159L33.6744 29.3979ZM36.6349 30.1607C37.3325 30.4834 37.6687 30.7063 37.9127 30.8727C38.1757 31.0521 38.4323 31.2413 38.8926 31.3792L39.323 29.9423C39.1144 29.8798 39.0349 29.8224 38.7577 29.6334C38.4614 29.4314 38.0531 29.164 37.2647 28.7993L36.6349 30.1607ZM38.8939 31.3796C40.1493 31.7533 41.888 31.4867 44.3639 29.4417L43.4087 28.2852C41.137 30.1615 39.9099 30.117 39.3218 29.9419L38.8939 31.3796ZM43.8863 29.6134H49.4879V28.1134H43.8863V29.6134ZM8.74146 43.733H13.933V42.233H8.74146V43.733ZM13.4403 43.5484C13.9206 43.9669 14.7492 44.5787 15.9231 44.934L16.3576 43.4983C15.4537 43.2247 14.8087 42.7512 14.4258 42.4175L13.4403 43.5484ZM15.9227 44.9338C17.8484 45.5178 19.5188 45.0532 20.1015 44.8839L19.683 43.4435C19.162 43.5948 17.8482 43.9503 16.358 43.4984L15.9227 44.9338ZM20.1007 44.8842C20.9992 44.6242 21.4656 44.3162 21.8509 44.0733C22.1797 43.8661 22.4326 43.7144 22.9998 43.6174L22.7469 42.1389C21.9084 42.2823 21.4645 42.5438 21.0511 42.8044C20.6942 43.0293 20.373 43.2439 19.6838 43.4433L20.1007 44.8842ZM22.9996 43.6175C24.3302 43.3903 25.4467 43.8134 25.632 43.8854L26.1757 42.4874C25.917 42.3868 24.4871 41.8419 22.7472 42.1388L22.9996 43.6175ZM25.6294 43.8844C26.2652 44.1344 26.5428 44.4064 26.8199 44.6744C26.9622 44.8119 27.1541 45.0007 27.398 45.1529C27.6607 45.3167 27.9602 45.4263 28.3303 45.4722L28.5148 43.9836C28.35 43.9632 28.2603 43.9228 28.1918 43.8801C28.1045 43.8257 28.0232 43.7513 27.8626 43.596C27.5339 43.2782 27.087 42.8458 26.1783 42.4885L25.6294 43.8844ZM28.3261 45.4717C28.4572 45.4886 28.611 45.4989 28.8179 45.4666C29.0023 45.4378 29.2078 45.3784 29.4598 45.2892C29.9619 45.1114 30.7786 44.767 32.2195 44.1279L31.6114 42.7567C30.1606 43.4002 29.3973 43.7201 28.9591 43.8752C28.741 43.9525 28.6363 43.9767 28.5864 43.9846C28.559 43.9888 28.5544 43.9887 28.519 43.9841L28.3261 45.4717ZM32.2193 44.128C33.6252 43.505 33.5424 43.5361 33.6805 43.5134L33.4368 42.0333C33.0508 42.0969 32.8632 42.202 31.6116 42.7566L32.2193 44.128ZM33.6744 43.5143C34.5992 43.3698 35.4215 43.7132 36.6337 44.2766L37.2659 42.9163C36.1166 42.3822 34.8857 41.8069 33.4429 42.0323L33.6744 43.5143ZM36.6349 44.2771C37.3325 44.5999 37.6687 44.8228 37.9126 44.9891C38.1757 45.1685 38.4323 45.3578 38.8926 45.4957L39.323 44.0587C39.1144 43.9962 39.0349 43.9389 38.7577 43.7498C38.4614 43.5478 38.0531 43.2805 37.2647 42.9158L36.6349 44.2771ZM38.8939 45.496C40.1493 45.8697 41.888 45.6032 44.3639 43.5581L43.4087 42.4016C41.137 44.278 39.9099 44.2334 39.3218 44.0584L38.8939 45.496ZM43.8863 43.7299H49.4879V42.2299H43.8863V43.7299ZM49.491 36.838H44.2994V38.338H49.491V36.838ZM44.7921 37.0225C44.3118 36.604 43.4832 35.9923 42.3093 35.637L41.8748 37.0726C42.7787 37.3463 43.4237 37.8197 43.8067 38.1534L44.7921 37.0225ZM42.3097 35.6371C40.384 35.0531 38.7136 35.5177 38.131 35.687L38.5494 37.1274C39.0704 36.9761 40.3843 36.6206 41.8744 37.0725L42.3097 35.6371ZM38.1317 35.6868C37.2332 35.9467 36.7668 36.2547 36.3815 36.4976C36.0527 36.7048 35.7998 36.8565 35.2326 36.9535L35.4855 38.432C36.3241 38.2886 36.7679 38.0272 37.1813 37.7666C37.5382 37.5416 37.8594 37.3271 38.5486 37.1277L38.1317 35.6868ZM35.2329 36.9535C33.9022 37.1806 32.7857 36.7575 32.6004 36.6855L32.0567 38.0835C32.3154 38.1841 33.7453 38.7291 35.4852 38.4321L35.2329 36.9535ZM32.603 36.6865C31.9672 36.4365 31.6896 36.1645 31.4125 35.8966C31.2702 35.759 31.0784 35.5702 30.8344 35.418C30.5717 35.2542 30.2722 35.1446 29.9021 35.0987L29.7176 36.5874C29.8824 36.6078 29.9721 36.6481 30.0406 36.6908C30.1279 36.7452 30.2092 36.8196 30.3698 36.9749C30.6985 37.2927 31.1454 37.7251 32.0541 38.0825L32.603 36.6865ZM29.9063 35.0993C29.7752 35.0823 29.6214 35.072 29.4145 35.1044C29.2301 35.1332 29.0246 35.1925 28.7726 35.2817C28.2705 35.4595 27.4538 35.804 26.0129 36.443L26.621 37.8142C28.0718 37.1708 28.8351 36.8508 29.2733 36.6957C29.4914 36.6185 29.5961 36.5942 29.6461 36.5864C29.6735 36.5821 29.678 36.5822 29.7134 36.5868L29.9063 35.0993ZM26.0131 36.4429C24.6072 37.0659 24.69 37.0348 24.5519 37.0576L24.7957 38.5376C25.1816 38.4741 25.3693 38.3689 26.6208 37.8143L26.0131 36.4429ZM24.558 37.0566C23.6332 37.2011 22.8109 36.8577 21.5987 36.2943L20.9665 37.6546C22.1158 38.1887 23.3467 38.7641 24.7896 38.5386L24.558 37.0566ZM21.5975 36.2938C20.8999 35.971 20.5638 35.7482 20.3198 35.5818C20.0567 35.4024 19.8001 35.2131 19.3398 35.0753L18.9094 36.5122C19.1181 36.5747 19.1975 36.6321 19.4747 36.8211C19.771 37.0231 20.1794 37.2904 20.9677 37.6552L21.5975 36.2938ZM19.3386 35.0749C18.0831 34.7012 16.3445 34.9677 13.8685 37.0128L14.8238 38.1693C17.0954 36.2929 18.3225 36.3375 18.9106 36.5126L19.3386 35.0749ZM14.3461 36.841H8.74146V38.341H14.3461V36.841ZM13.6977 33.2287C13.6977 33.5671 13.4234 33.8414 13.085 33.8414V35.3414C14.2518 35.3414 15.1977 34.3955 15.1977 33.2287H13.6977ZM13.085 33.8414C12.7467 33.8414 12.4724 33.5671 12.4724 33.2287H10.9724C10.9724 34.3955 11.9183 35.3414 13.085 35.3414V33.8414ZM12.4724 33.2287C12.4724 32.8904 12.7467 32.6161 13.085 32.6161V31.1161C11.9183 31.1161 10.9724 32.062 10.9724 33.2287H12.4724ZM13.085 32.6161C13.4234 32.6161 13.6977 32.8904 13.6977 33.2287H15.1977C15.1977 32.0619 14.2518 31.1161 13.085 31.1161V32.6161ZM24.5895 33.2287C24.5895 33.5671 24.3152 33.8414 23.9769 33.8414V35.3414C25.1437 35.3414 26.0895 34.3955 26.0895 33.2287H24.5895ZM23.9769 33.8414C23.6385 33.8414 23.3643 33.5671 23.3643 33.2287H21.8643C21.8643 34.3955 22.8101 35.3414 23.9769 35.3414V33.8414ZM23.3643 33.2287C23.3643 32.8904 23.6385 32.6161 23.9769 32.6161V31.1161C22.8101 31.1161 21.8643 32.062 21.8643 33.2287H23.3643ZM23.9769 32.6161C24.3152 32.6161 24.5895 32.8904 24.5895 33.2287H26.0895C26.0895 32.062 25.1437 31.1161 23.9769 31.1161V32.6161ZM34.8063 33.2287C34.8063 33.5671 34.532 33.8414 34.1937 33.8414V35.3414C35.3605 35.3414 36.3063 34.3955 36.3063 33.2287H34.8063ZM34.1937 33.8414C33.8553 33.8414 33.5811 33.5671 33.5811 33.2287H32.0811C32.0811 34.3955 33.0269 35.3414 34.1937 35.3414V33.8414ZM33.5811 33.2287C33.5811 32.8904 33.8553 32.6161 34.1937 32.6161V31.1161C33.0269 31.1161 32.0811 32.062 32.0811 33.2287H33.5811ZM34.1937 32.6161C34.532 32.6161 34.8063 32.8904 34.8063 33.2287H36.3063C36.3063 32.062 35.3605 31.1161 34.1937 31.1161V32.6161ZM40.3124 40.5321C40.3124 40.8704 40.0381 41.1447 39.6998 41.1447V42.6447C40.8666 42.6447 41.8124 41.6988 41.8124 40.5321H40.3124ZM39.6998 41.1447C39.3614 41.1447 39.0872 40.8704 39.0872 40.5321H37.5872C37.5872 41.6988 38.533 42.6447 39.6998 42.6447V41.1447ZM39.0872 40.5321C39.0872 40.1937 39.3614 39.9194 39.6998 39.9194V38.4194C38.533 38.4194 37.5872 39.3653 37.5872 40.5321H39.0872ZM39.6998 39.9194C40.0381 39.9194 40.3124 40.1937 40.3124 40.5321H41.8124C41.8124 39.3653 40.8666 38.4194 39.6998 38.4194V39.9194ZM29.7287 40.2855C29.7287 40.6238 29.4544 40.8981 29.1161 40.8981V42.3981C30.2828 42.3981 31.2287 41.4523 31.2287 40.2855H29.7287ZM29.1161 40.8981C28.7777 40.8981 28.5034 40.6238 28.5034 40.2855H27.0034C27.0034 41.4523 27.9493 42.3981 29.1161 42.3981V40.8981ZM28.5034 40.2855C28.5034 39.9471 28.7777 39.6729 29.1161 39.6729V38.1729C27.9493 38.1729 27.0034 39.1187 27.0034 40.2855H28.5034ZM29.1161 39.6729C29.4544 39.6729 29.7287 39.9471 29.7287 40.2855H31.2287C31.2287 39.1187 30.2828 38.1729 29.1161 38.1729V39.6729ZM19.1452 40.0388C19.1452 40.3771 18.8709 40.6514 18.5326 40.6514V42.1514C19.6993 42.1514 20.6452 41.2056 20.6452 40.0388H19.1452ZM18.5326 40.6514C18.1942 40.6514 17.9199 40.3771 17.9199 40.0388H16.4199C16.4199 41.2056 17.3658 42.1514 18.5326 42.1514V40.6514ZM17.9199 40.0388C17.9199 39.7004 18.1942 39.4261 18.5326 39.4261V37.9261C17.3658 37.9261 16.4199 38.872 16.4199 40.0388H17.9199ZM18.5326 39.4261C18.8709 39.4261 19.1452 39.7004 19.1452 40.0388H20.6452C20.6452 38.872 19.6993 37.9261 18.5326 37.9261V39.4261ZM45.655 33.2287C45.655 33.5671 45.3807 33.8414 45.0423 33.8414V35.3414C46.2091 35.3414 47.155 34.3955 47.155 33.2287H45.655ZM45.0423 33.8414C44.704 33.8414 44.4297 33.5671 44.4297 33.2287H42.9297C42.9297 34.3955 43.8755 35.3414 45.0423 35.3414V33.8414ZM44.4297 33.2287C44.4297 32.8904 44.704 32.6161 45.0423 32.6161V31.1161C43.8755 31.1161 42.9297 32.062 42.9297 33.2287H44.4297ZM45.0423 32.6161C45.3807 32.6161 45.655 32.8904 45.655 33.2287H47.155C47.155 32.062 46.2091 31.1161 45.0423 31.1161V32.6161ZM30.1919 17.7843C30.5427 17.9769 31.188 18.3986 31.6144 19.1813L32.9316 18.4636C32.3098 17.3225 31.3828 16.7269 30.9136 16.4694L30.1919 17.7843ZM31.614 19.1806C32.0398 19.9639 32.0658 20.7804 31.9581 21.4568C31.8502 22.1351 31.6145 22.6263 31.5757 22.705L32.921 23.3684C32.9931 23.2221 33.2985 22.5788 33.4395 21.6925C33.5808 20.8044 33.5635 19.6262 32.9319 18.4642L31.614 19.1806Z" fill="#11284A"/>
</g>
<defs>
<clipPath id="clip0_489_9280">
<rect width="59" height="59" fill="white"/>
</clipPath>
</defs>
</svg>
