<svg width="94" height="91" viewBox="0 0 94 91" fill="none" xmlns="http://www.w3.org/2000/svg">
<g clip-path="url(#clip0_4_5044)">
<path d="M34.834 61.6766C34.834 77.9011 47.9304 91 64.1574 91C80.3818 91 93.4808 77.9036 93.4808 61.6766C93.4808 56.0074 91.9168 50.8267 89.1791 46.3311L64.1574 0L39.1357 46.3311C36.398 50.8267 34.834 56.1056 34.834 61.6766ZM44.0418 62.6639C44.0418 57.6696 45.233 52.9398 47.3159 48.9101L67.643 10.802L87.6403 47.0086C89.7231 51.0383 91.3249 56.7931 91.3249 63.4245C91.3249 77.9665 78.7221 88.9449 66.3687 88.9449C54.0152 88.9449 44.0443 77.2059 44.0443 62.6614L44.0418 62.6639Z" fill="#5BBAD6"/>
<path d="M0.736328 66.1269C0.736328 63.8174 0.814403 43.8605 0.736328 39.7905H6.4509C12.5156 39.7905 15.3338 43.2737 15.3338 46.7568C15.3338 50.6706 11.5761 54.5844 4.69044 53.567L4.88689 53.2547C10.1708 53.2547 12.5559 50.6329 12.5559 47.0313C12.5559 43.7824 9.97435 40.4579 3.8694 40.9264L3.67295 41.1606C3.67295 48.6734 3.63265 58.6141 3.63265 66.1269H0.736328Z" fill="#25394F"/>
<path d="M19.6373 66.1269C19.6373 63.8174 19.7154 43.8605 19.6373 39.7905H25.3493C31.414 39.7905 34.2322 43.2737 34.2322 46.7568C34.2322 50.6706 30.4746 54.5844 23.5889 53.567L23.7853 53.2547C29.0692 53.2547 31.4568 50.6329 31.4568 47.0313C31.4568 43.7824 28.8728 40.4579 22.7678 40.9264L22.5714 41.1606C22.5714 48.6734 22.5311 58.6141 22.5311 66.1269H19.6348H19.6373Z" fill="#25394F"/>
<path d="M62.2531 66.1269C61.5479 58.536 60.0998 43.3114 60.0998 43.3114L60.1401 42.843L50.5923 66.7138H50.28L40.8102 43.3517L40.6541 42.5685L37.9139 66.1269L36.8184 66.0866L39.7525 41.6291L39.6744 39.7905H42.5304C42.5304 39.7905 43.1172 41.3571 43.5479 42.4526C46.8749 51.061 49.7712 57.7931 51.2975 61.4701C51.3378 61.5482 51.3378 62.057 51.3378 62.135L60.2987 39.7905H62.5302C63.2731 47.4595 64.6432 61.6263 65.1923 66.1269H62.2582H62.2531Z" fill="#25394F"/>
<path d="M75.3023 32.6176C70.7186 33.688 68.7843 36.539 68.4292 41.4526C68.8876 40.7651 70.3635 39.4403 72.5294 39.4403C75.534 39.4403 77.7226 41.4249 77.7226 44.354C77.7226 47.2831 75.1512 49.7512 71.9678 49.7512C68.1245 49.7512 66.2129 46.3663 66.2129 43.0796C66.2129 35.4409 71.6857 32.3355 75.2771 32.0308L75.3023 32.6151V32.6176ZM68.3763 43.3365C68.3763 46.1119 69.1923 48.7589 72.1692 48.7589C73.8491 48.7589 75.529 47.1546 75.529 44.2029C75.529 41.2511 73.6199 40.2311 71.9652 40.2311C69.8774 40.2311 68.7818 41.6314 68.4015 42.3442C68.3763 42.7522 68.3763 42.9033 68.3763 43.3365Z" fill="#25394F"/>
<path d="M1.73276 71.1666H0V70.2876H4.47041V71.1666H2.73766V75.9392H1.73276V71.1666Z" fill="#25394F"/>
<path d="M6.36189 70.29H10.1044V71.169H7.36679V72.6071H9.96089V73.4533H7.36679V75.0501H10.248V75.9442H6.35938V70.2926L6.36189 70.29Z" fill="#25394F"/>
<path d="M16.5468 71.6148C16.3982 71.4133 16.2043 71.2647 15.965 71.1715C15.7257 71.0783 15.4915 71.033 15.2623 71.033C14.9702 71.033 14.7032 71.0859 14.464 71.1917C14.2247 71.2975 14.0182 71.4435 13.8444 71.6299C13.6706 71.8163 13.5396 72.0354 13.4465 72.2847C13.3533 72.5341 13.3079 72.8061 13.3079 73.0982C13.3079 73.408 13.3533 73.6901 13.4439 73.9445C13.5346 74.1988 13.6631 74.4205 13.8318 74.6018C14.0005 74.7856 14.1995 74.9267 14.4337 75.0299C14.668 75.1307 14.9299 75.1811 15.2246 75.1811C15.5192 75.1811 15.7963 75.1206 16.0305 75.0022C16.2647 74.8813 16.4536 74.7252 16.5972 74.5262L17.4031 75.0929C17.1538 75.4077 16.8465 75.6495 16.4838 75.8233C16.1212 75.9971 15.698 76.0827 15.2145 76.0827C14.7737 76.0827 14.3657 76.0097 13.998 75.8636C13.6278 75.7175 13.3105 75.5135 13.0435 75.2491C12.7765 74.9846 12.57 74.6723 12.4214 74.3071C12.2728 73.9419 12.1973 73.539 12.1973 73.0982C12.1973 72.6575 12.2753 72.2369 12.434 71.8742C12.5902 71.509 12.8068 71.1992 13.0813 70.9449C13.3558 70.6905 13.6782 70.4915 14.0509 70.353C14.4237 70.2145 14.8266 70.1465 15.2649 70.1465C15.4462 70.1465 15.6351 70.1641 15.8315 70.1994C16.028 70.2346 16.2169 70.2875 16.3982 70.358C16.5795 70.4311 16.7483 70.5192 16.9095 70.625C17.0681 70.7308 17.2041 70.8592 17.3175 71.0078L16.5518 71.6148H16.5468Z" fill="#25394F"/>
<path d="M19.2617 70.29H20.2666V72.5718H22.9086V70.29H23.9135V75.9417H22.9086V73.4357H20.2666V75.9417H19.2617V70.29Z" fill="#25394F"/>
<path d="M26.3965 70.29H27.7288L30.3556 74.5212H30.3707V70.29H31.3756V75.9417H30.0987L27.4165 71.5745H27.4014V75.9417H26.3965V70.29Z" fill="#25394F"/>
<path d="M33.5898 73.0982C33.5898 72.6449 33.6654 72.2369 33.8165 71.8742C33.9676 71.509 34.1792 71.1992 34.4462 70.9449C34.7156 70.6905 35.033 70.4915 35.4032 70.353C35.7734 70.2145 36.1764 70.1465 36.6121 70.1465C37.0478 70.1465 37.4608 70.2145 37.8336 70.353C38.2063 70.4915 38.5287 70.688 38.7982 70.9449C39.0702 71.1992 39.2818 71.5115 39.4329 71.8742C39.584 72.2394 39.6595 72.6474 39.6595 73.0982C39.6595 73.549 39.584 73.9419 39.4329 74.3071C39.2818 74.6723 39.0702 74.9846 38.7982 75.2491C38.5262 75.5135 38.2038 75.7175 37.8336 75.8636C37.4608 76.0097 37.0528 76.0827 36.6121 76.0827C36.1714 76.0827 35.7734 76.0097 35.4032 75.8636C35.033 75.7175 34.7131 75.5135 34.4462 75.2491C34.1767 74.9846 33.9676 74.6723 33.8165 74.3071C33.6654 73.9419 33.5898 73.539 33.5898 73.0982ZM34.6829 73.0982C34.6829 73.4004 34.7282 73.68 34.8214 73.9319C34.9146 74.1837 35.0481 74.4053 35.2193 74.5892C35.3931 74.7756 35.5971 74.9216 35.8339 75.0249C36.0706 75.1282 36.3325 75.1811 36.6197 75.1811C36.9068 75.1811 37.1712 75.1282 37.4105 75.0249C37.6497 74.9216 37.8563 74.7756 38.03 74.5892C38.2038 74.4028 38.3348 74.1837 38.428 73.9319C38.5212 73.68 38.5665 73.4004 38.5665 73.0982C38.5665 72.796 38.5212 72.5341 38.428 72.2847C38.3348 72.0354 38.2038 71.8163 38.0326 71.6299C37.8613 71.4435 37.6573 71.2975 37.418 71.1917C37.1788 71.0859 36.9118 71.033 36.6197 71.033C36.3275 71.033 36.0631 71.0859 35.8263 71.1917C35.5896 71.2975 35.3856 71.4435 35.2168 71.6299C35.0456 71.8163 34.9146 72.0354 34.8214 72.2847C34.7282 72.5341 34.6829 72.8061 34.6829 73.0982Z" fill="#25394F"/>
<path d="M41.875 70.29H42.8799V75.0476H45.2826V75.9417H41.875V70.29Z" fill="#25394F"/>
<path d="M46.6816 73.0982C46.6816 72.6449 46.7572 72.2369 46.9083 71.8742C47.0594 71.509 47.271 71.1992 47.5379 70.9449C47.8074 70.6905 48.1248 70.4915 48.495 70.353C48.8652 70.2145 49.2682 70.1465 49.7039 70.1465C50.1396 70.1465 50.5526 70.2145 50.9254 70.353C51.2981 70.4915 51.6205 70.688 51.89 70.9449C52.162 71.1992 52.3735 71.5115 52.5247 71.8742C52.6758 72.2394 52.7513 72.6474 52.7513 73.0982C52.7513 73.549 52.6758 73.9419 52.5247 74.3071C52.3735 74.6723 52.162 74.9846 51.89 75.2491C51.618 75.5135 51.2956 75.7175 50.9254 75.8636C50.5526 76.0097 50.1446 76.0827 49.7039 76.0827C49.2631 76.0827 48.8652 76.0097 48.495 75.8636C48.1248 75.7175 47.8049 75.5135 47.5379 75.2491C47.2685 74.9846 47.0594 74.6723 46.9083 74.3071C46.7572 73.9419 46.6816 73.539 46.6816 73.0982ZM47.7747 73.0982C47.7747 73.4004 47.82 73.68 47.9132 73.9319C48.0064 74.1837 48.1399 74.4053 48.3111 74.5892C48.4849 74.7756 48.6889 74.9216 48.9257 75.0249C49.1624 75.1282 49.4243 75.1811 49.7114 75.1811C49.9986 75.1811 50.263 75.1282 50.5023 75.0249C50.7415 74.9216 50.9481 74.7756 51.1218 74.5892C51.2956 74.4028 51.4266 74.1837 51.5198 73.9319C51.6129 73.68 51.6583 73.4004 51.6583 73.0982C51.6583 72.796 51.6129 72.5341 51.5198 72.2847C51.4266 72.0354 51.2956 71.8163 51.1244 71.6299C50.9531 71.4435 50.7491 71.2975 50.5098 71.1917C50.2706 71.0859 50.0036 71.033 49.7114 71.033C49.4193 71.033 49.1548 71.0859 48.9181 71.1917C48.6814 71.2975 48.4774 71.4435 48.3086 71.6299C48.1374 71.8163 48.0064 72.0354 47.9132 72.2847C47.82 72.5341 47.7747 72.8061 47.7747 73.0982Z" fill="#25394F"/>
<path d="M59.9129 75.6445C59.6258 75.783 59.311 75.8913 58.9659 75.9668C58.6234 76.0449 58.228 76.0827 57.7797 76.0827C57.3314 76.0827 56.9033 76.0097 56.5255 75.8636C56.1477 75.7175 55.8228 75.5135 55.5508 75.2491C55.2788 74.9846 55.0672 74.6723 54.9161 74.3071C54.765 73.9419 54.6895 73.539 54.6895 73.0982C54.6895 72.6575 54.7675 72.2369 54.9262 71.8742C55.0823 71.509 55.2989 71.1992 55.5735 70.9449C55.848 70.6905 56.1704 70.4915 56.5431 70.353C56.9158 70.2145 57.3188 70.1465 57.757 70.1465C58.1953 70.1465 58.6234 70.212 58.9987 70.3429C59.3739 70.4739 59.6762 70.6452 59.9054 70.8567L59.2102 71.6072C59.0667 71.4486 58.8652 71.3126 58.6083 71.1992C58.3514 71.0859 58.0693 71.0305 57.7671 71.0305C57.4649 71.0305 57.1979 71.0834 56.9561 71.1892C56.7144 71.2949 56.5078 71.441 56.3366 71.6274C56.1653 71.8138 56.0344 72.0329 55.9412 72.2822C55.848 72.5315 55.8027 72.8036 55.8027 73.0957C55.8027 73.3879 55.8505 73.6775 55.9412 73.9293C56.0344 74.1812 56.1678 74.4028 56.3391 74.5867C56.5129 74.773 56.7219 74.9191 56.9687 75.0224C57.2156 75.1256 57.4976 75.1785 57.8099 75.1785C58.2406 75.1785 58.6159 75.1131 58.9357 74.9796V73.5415H57.747V72.7104H59.9104V75.6394L59.9129 75.6445Z" fill="#25394F"/>
<path d="M63.3536 73.4911L61.2305 70.29H62.4595L63.88 72.6675L65.3181 70.29H66.4842L64.361 73.4911V75.9417H63.3561V73.4911H63.3536Z" fill="#25394F"/>
</g>
<defs>
<clipPath id="clip0_4_5044">
<rect width="93.4782" height="91" fill="white"/>
</clipPath>
</defs>
</svg>
